<?xml version="1.0" encoding="UTF-8" standalone="no"?>
<!DOCTYPE svg PUBLIC "-//W3C//DTD SVG 1.1//EN" "http://www.w3.org/Graphics/SVG/1.1/DTD/svg11.dtd">
<svg width="100%" height="100%" viewBox="0 0 749 550" version="1.1" xmlns="http://www.w3.org/2000/svg" xmlns:xlink="http://www.w3.org/1999/xlink" xml:space="preserve" style="fill-rule:evenodd;clip-rule:evenodd;stroke-linejoin:round;stroke-miterlimit:1.41421;">
    <rect x="261.417" y="537.463" width="225.833" height="12.199" style="fill:rgb(64,67,72);"/>
    <path d="M421.284,436L326.284,436L312.284,538.463L436.284,538.463L421.284,436Z" style="fill:rgb(64,67,72);"/>
    <path d="M748.667,26.539C748.667,19.501 745.871,12.75 740.893,7.773C735.916,2.796 729.166,0 722.127,0C605.938,0 142.728,0 26.539,0C19.501,0 12.75,2.796 7.773,7.773C2.796,12.75 0,19.501 0,26.539C0,106.361 0,343.639 0,423.461C0,430.499 2.796,437.25 7.773,442.227C12.75,447.204 19.501,450 26.539,450C142.728,450 605.938,450 722.127,450C729.166,450 735.916,447.204 740.893,442.227C745.871,437.25 748.667,430.499 748.667,423.461C748.667,343.639 748.667,106.361 748.667,26.539L748.667,26.539ZM715.176,33.276L33.491,33.276L33.491,416.724L715.176,416.724L715.176,33.276L715.176,33.276Z" style="fill:rgb(64,67,72);"/>
    <rect x="33.491" y="33.276" width="681.685" height="383.448" style="fill-opacity:0.501961;"/>
</svg>
