<?xml version="1.0" encoding="utf-8"?>
<!-- Generator: Adobe Illustrator 20.0.0, SVG Export Plug-In . SVG Version: 6.00 Build 0)  -->
<svg version="1.1" id="Layer_1" xmlns="http://www.w3.org/2000/svg" xmlns:xlink="http://www.w3.org/1999/xlink" x="0px" y="0px"
	 viewBox="0 0 32 32" style="enable-background:new 0 0 32 32;" xml:space="preserve">
<style type="text/css">
	.st0{fill:#FFFFFF;}
	.st1{fill:none;stroke:#FFFFFF;stroke-miterlimit:10;}
</style>
<g>
	<path class="st0" d="M16.7,20.4h-1.3c-2.1,0-3.8-1.5-4.1-3.6L10.1,6.4C10,6,10.4,5.5,10.9,5.5h10.4c0.5,0,0.9,0.4,0.8,0.9
		l-1.3,10.4C20.5,18.8,18.8,20.4,16.7,20.4z"/>
	<path class="st0" d="M21.2,23.4H10.9c-0.5,0-1,0.4-1,1v2.1h12.3v-2.1C22.2,23.9,21.8,23.4,21.2,23.4z"/>
	<rect x="14.4" y="18.2" class="st0" width="3.2" height="6.3"/>
	<path class="st1" d="M16.5,17.1c0,0,7-0.6,7.6-6.7c0-0.5-0.3-0.9-0.8-0.9h-8.5"/>
	<path class="st1" d="M15.4,17.1c0,0-6.9-0.6-7.5-6.7c0-0.5,0.3-0.9,0.8-0.9h8.2"/>
</g>
</svg>
