<?xml version="1.0" encoding="UTF-8" standalone="no"?><!DOCTYPE svg PUBLIC "-//W3C//DTD SVG 1.1//EN" "http://www.w3.org/Graphics/SVG/1.1/DTD/svg11.dtd"><svg width="100%" height="100%" viewBox="0 0 32 32" version="1.1" xmlns="http://www.w3.org/2000/svg" xmlns:xlink="http://www.w3.org/1999/xlink" xml:space="preserve" style="fill-rule:evenodd;clip-rule:evenodd;stroke-linejoin:round;stroke-miterlimit:1.41421;"><g><path d="M5.942,19.591c0,-0.875 -0.18,-1.476 -0.54,-1.802c-0.36,-0.326 -0.867,-0.489 -1.519,-0.489l0,-2.574c0.652,0 1.159,-0.176 1.519,-0.528c0.36,-0.352 0.54,-0.905 0.54,-1.66l0,-5.38c0,-0.926 0.219,-1.682 0.657,-2.265c0.437,-0.583 1.137,-0.875 2.098,-0.875l3.089,0l0,2.831l-1.288,0c-0.463,0 -0.802,0.12 -1.016,0.361c-0.215,0.24 -0.322,0.635 -0.322,1.184l0,5.019c0,0.755 -0.18,1.326 -0.541,1.712c-0.36,0.386 -0.78,0.622 -1.261,0.708l0,0.257c0.463,0.069 0.88,0.326 1.249,0.772c0.369,0.446 0.553,1.03 0.553,1.751l0,4.993c0,0.549 0.103,0.944 0.309,1.184c0.206,0.241 0.558,0.361 1.055,0.361l1.262,0l0,2.831l-3.089,0c-0.893,0 -1.575,-0.27 -2.047,-0.811c-0.472,-0.54 -0.708,-1.308 -0.708,-2.303l0,-5.277Z" style="fill:#fff;fill-rule:nonzero;"/><path d="M26.058,12.409c0,0.875 0.18,1.476 0.54,1.802c0.36,0.326 0.867,0.489 1.519,0.489l0,2.574c-0.652,0 -1.159,0.176 -1.519,0.528c-0.36,0.352 -0.54,0.905 -0.54,1.66l0,5.38c0,0.926 -0.228,1.682 -0.683,2.265c-0.454,0.583 -1.162,0.875 -2.123,0.875l-3.012,0l0,-2.831l1.287,0c0.464,0 0.803,-0.116 1.017,-0.348c0.215,-0.231 0.322,-0.63 0.322,-1.197l0,-5.019c0,-0.755 0.18,-1.326 0.54,-1.712c0.361,-0.386 0.781,-0.622 1.262,-0.708l0,-0.257c-0.464,-0.069 -0.88,-0.326 -1.249,-0.772c-0.369,-0.446 -0.553,-1.03 -0.553,-1.751l0,-4.993c0,-0.532 -0.103,-0.923 -0.309,-1.171c-0.206,-0.249 -0.558,-0.374 -1.055,-0.374l-1.262,0l0,-2.831l3.063,0c0.91,0 1.596,0.27 2.06,0.811c0.463,0.54 0.695,1.308 0.695,2.303l0,5.277Z" style="fill:#fff;fill-rule:nonzero;"/></g></svg>