<?xml version="1.0" encoding="UTF-8" standalone="no"?><!DOCTYPE svg PUBLIC "-//W3C//DTD SVG 1.1//EN" "http://www.w3.org/Graphics/SVG/1.1/DTD/svg11.dtd"><svg width="100%" height="100%" viewBox="0 0 32 32" version="1.1" xmlns="http://www.w3.org/2000/svg" xmlns:xlink="http://www.w3.org/1999/xlink" xml:space="preserve" style="fill-rule:evenodd;clip-rule:evenodd;stroke-linejoin:round;stroke-miterlimit:1.41421;"><path d="M0,0l32,0l0,32l-32,0l0,-32Z" style="fill:none;"/><path d="M13.453,20.787l1.88,1.88l6.667,-6.667l-6.667,-6.667l-1.88,1.88l3.44,3.454l-12.893,0l0,2.666l12.893,0l-3.44,3.454Zm11.88,-16.787l-18.666,0c-1.48,0 -2.667,1.2 -2.667,2.667l0,5.333l2.667,0l0,-5.333l18.666,0l0,18.666l-18.666,0l0,-5.333l-2.667,0l0,5.333c0,1.467 1.187,2.667 2.667,2.667l18.666,0c1.467,0 2.667,-1.2 2.667,-2.667l0,-18.666c0,-1.467 -1.2,-2.667 -2.667,-2.667Z" style="fill:#fff;fill-rule:nonzero;"/></svg>