<?xml version="1.0" encoding="UTF-8" standalone="no"?><!DOCTYPE svg PUBLIC "-//W3C//DTD SVG 1.1//EN" "http://www.w3.org/Graphics/SVG/1.1/DTD/svg11.dtd"><svg width="100%" height="100%" viewBox="0 0 32 32" version="1.1" xmlns="http://www.w3.org/2000/svg" xmlns:xlink="http://www.w3.org/1999/xlink" xml:space="preserve" style="fill-rule:evenodd;clip-rule:evenodd;stroke-linejoin:round;stroke-miterlimit:1.41421;"><path id="v" d="M17.89,21.15l-3.674,0l-0.404,-18.07l4.5,0l-0.422,18.07Zm-4.202,5.511c0,-0.665 0.217,-1.217 0.651,-1.655c0.433,-0.437 1.025,-0.656 1.775,-0.656c0.75,0 1.342,0.219 1.776,0.656c0.433,0.438 0.65,0.99 0.65,1.655c0,0.642 -0.211,1.179 -0.633,1.611c-0.422,0.432 -1.019,0.648 -1.793,0.648c-0.773,0 -1.371,-0.216 -1.793,-0.648c-0.422,-0.432 -0.633,-0.969 -0.633,-1.611Z" style="fill:#fff;fill-rule:nonzero;"/></svg>