<?xml version="1.0" encoding="UTF-8" standalone="no"?><!DOCTYPE svg PUBLIC "-//W3C//DTD SVG 1.1//EN" "http://www.w3.org/Graphics/SVG/1.1/DTD/svg11.dtd"><svg width="100%" height="100%" viewBox="0 0 32 32" version="1.1" xmlns="http://www.w3.org/2000/svg" xmlns:xlink="http://www.w3.org/1999/xlink" xml:space="preserve" style="fill-rule:evenodd;clip-rule:evenodd;stroke-linejoin:round;stroke-miterlimit:1.41421;"><path d="M0,0l32,0l0,32l-32,0l0,-32Z" style="fill:none;"/><path d="M16,2.667c-7.36,0 -13.333,5.973 -13.333,13.333c0,7.36 5.973,13.333 13.333,13.333c7.36,0 13.333,-5.973 13.333,-13.333c0,-7.36 -5.973,-13.333 -13.333,-13.333Zm1.333,22.666l-2.666,0l0,-2.666l2.666,0l0,2.666Zm2.76,-10.333l-1.2,1.227c-0.96,0.973 -1.56,1.773 -1.56,3.773l-2.666,0l0,-0.667c0,-1.466 0.6,-2.8 1.56,-3.773l1.653,-1.68c0.493,-0.48 0.787,-1.147 0.787,-1.88c0,-1.467 -1.2,-2.667 -2.667,-2.667c-1.467,0 -2.667,1.2 -2.667,2.667l-2.666,0c0,-2.947 2.386,-5.333 5.333,-5.333c2.947,0 5.333,2.386 5.333,5.333c0,1.173 -0.48,2.24 -1.24,3Z" style="fill:#fff;fill-rule:nonzero;"/></svg>