<?xml version="1.0" encoding="UTF-8" standalone="no"?><!DOCTYPE svg PUBLIC "-//W3C//DTD SVG 1.1//EN" "http://www.w3.org/Graphics/SVG/1.1/DTD/svg11.dtd"><svg width="100%" height="100%" viewBox="0 0 32 32" version="1.1" xmlns="http://www.w3.org/2000/svg" xmlns:xlink="http://www.w3.org/1999/xlink" xml:space="preserve" style="fill-rule:evenodd;clip-rule:evenodd;stroke-linejoin:round;stroke-miterlimit:1.41421;"><g><path d="M4.738,0l-1.902,0l-2.441,2.279l1.274,1.364c0.503,-0.442 0.802,-0.766 0.898,-0.969l0.035,0l0,0.216c0,0.478 -0.003,1.202 -0.009,2.171c-0.006,0.969 -0.009,1.699 -0.009,2.19l-1.92,0l0,1.777l6.012,0l0,-1.777l-1.938,0l0,-7.251Z" style="fill:#fff;fill-rule:nonzero;"/><path d="M31.776,4.603c-0.114,-0.113 -0.249,-0.17 -0.404,-0.17l-21.824,0c-0.156,0 -0.29,0.057 -0.404,0.17c-0.113,0.114 -0.17,0.249 -0.17,0.404l0,3.446c0,0.156 0.056,0.29 0.17,0.404c0.114,0.114 0.248,0.171 0.404,0.171l21.824,0c0.156,0 0.29,-0.057 0.404,-0.171c0.114,-0.114 0.17,-0.248 0.17,-0.404l0,-3.446c0,-0.155 -0.056,-0.29 -0.17,-0.404Z" style="fill:#fff;fill-rule:nonzero;"/><path d="M4.631,26.454l1.705,-2.064l0,-1.579l-5.977,0l0,2.728l1.902,0l0,-0.951c0.192,0 0.482,-0.006 0.871,-0.018c0.389,-0.012 0.679,-0.018 0.87,-0.018l0,0.018c-0.227,0.216 -0.448,0.446 -0.664,0.691c-0.215,0.246 -0.469,0.569 -0.763,0.969c-0.293,0.401 -0.487,0.661 -0.583,0.781l0.467,1.005c1.256,-0.096 1.884,0.239 1.884,1.005c0,0.335 -0.128,0.589 -0.386,0.762c-0.257,0.174 -0.559,0.261 -0.906,0.261c-0.682,0 -1.316,-0.269 -1.902,-0.808l-1.023,1.579c0.789,0.79 1.818,1.185 3.087,1.185c0.969,0 1.779,-0.275 2.432,-0.825c0.652,-0.551 0.978,-1.305 0.978,-2.262c0,-0.61 -0.18,-1.137 -0.538,-1.579c-0.36,-0.443 -0.844,-0.736 -1.454,-0.88Z" style="fill:#fff;fill-rule:nonzero;"/><path d="M4.774,18.737l-2.28,0c0.013,-0.299 0.225,-0.613 0.638,-0.942c0.413,-0.329 0.864,-0.631 1.355,-0.906c0.49,-0.276 0.939,-0.661 1.346,-1.158c0.407,-0.496 0.61,-1.044 0.61,-1.642c0,-0.85 -0.299,-1.523 -0.897,-2.019c-0.598,-0.497 -1.334,-0.745 -2.208,-0.745c-0.694,0 -1.325,0.17 -1.893,0.512c-0.569,0.341 -0.996,0.816 -1.284,1.427l1.526,1.058c0.419,-0.694 0.903,-1.041 1.454,-1.041c0.299,0 0.535,0.081 0.709,0.243c0.173,0.161 0.26,0.392 0.26,0.691c0,0.275 -0.14,0.544 -0.422,0.807c-0.281,0.264 -0.619,0.524 -1.014,0.781c-0.395,0.257 -0.79,0.542 -1.184,0.853c-0.395,0.311 -0.733,0.717 -1.015,1.22c-0.281,0.502 -0.421,1.059 -0.421,1.669c0,0.215 0.036,0.538 0.107,0.969l6.497,0l0,-2.854l0,0l-1.884,0l0,1.077Z" style="fill:#fff;fill-rule:nonzero;"/><path d="M31.372,22.811l-21.824,0c-0.168,0 -0.305,0.054 -0.413,0.161c-0.107,0.108 -0.161,0.246 -0.161,0.413l0,3.446c0,0.156 0.056,0.29 0.17,0.404c0.114,0.114 0.248,0.17 0.404,0.17l21.824,0c0.156,0 0.29,-0.056 0.404,-0.17c0.114,-0.114 0.17,-0.248 0.17,-0.404l0,-3.446c0,-0.155 -0.057,-0.29 -0.17,-0.403c-0.114,-0.114 -0.249,-0.171 -0.404,-0.171Z" style="fill:#fff;fill-rule:nonzero;"/><path d="M31.372,13.622l-21.824,0c-0.168,0 -0.305,0.054 -0.413,0.161c-0.107,0.108 -0.161,0.246 -0.161,0.413l0,3.446c0,0.156 0.056,0.29 0.17,0.404c0.114,0.114 0.248,0.171 0.404,0.171l21.824,0c0.156,0 0.29,-0.057 0.404,-0.171c0.114,-0.114 0.17,-0.248 0.17,-0.404l0,-3.446c0,-0.155 -0.057,-0.29 -0.17,-0.404c-0.114,-0.113 -0.249,-0.17 -0.404,-0.17Z" style="fill:#fff;fill-rule:nonzero;"/></g></svg>