<?xml version="1.0" encoding="UTF-8" standalone="no"?><!DOCTYPE svg PUBLIC "-//W3C//DTD SVG 1.1//EN" "http://www.w3.org/Graphics/SVG/1.1/DTD/svg11.dtd"><svg width="100%" height="100%" viewBox="0 0 32 32" version="1.1" xmlns="http://www.w3.org/2000/svg" xmlns:xlink="http://www.w3.org/1999/xlink" xml:space="preserve" style="fill-rule:evenodd;clip-rule:evenodd;stroke-linejoin:round;stroke-miterlimit:1.41421;"><path d="M0,0l32,0l0,32l-32,0l0,-32Z" style="fill:none;"/><path d="M24,10.667l-1.333,0l0,-2.667c0,-3.68 -2.987,-6.667 -6.667,-6.667c-3.68,0 -6.667,2.987 -6.667,6.667l0,2.667l-1.333,0c-1.467,0 -2.667,1.2 -2.667,2.666l0,13.334c0,1.466 1.2,2.666 2.667,2.666l16,0c1.467,0 2.667,-1.2 2.667,-2.666l0,-13.334c0,-1.466 -1.2,-2.666 -2.667,-2.666Zm-8,12c-1.467,0 -2.667,-1.2 -2.667,-2.667c0,-1.467 1.2,-2.667 2.667,-2.667c1.467,0 2.667,1.2 2.667,2.667c0,1.467 -1.2,2.667 -2.667,2.667Zm4.133,-12l-8.266,0l0,-2.667c0,-2.28 1.853,-4.133 4.133,-4.133c2.28,0 4.133,1.853 4.133,4.133l0,2.667Z" style="fill:#fff;fill-rule:nonzero;"/></svg>