<?xml version="1.0" encoding="UTF-8" standalone="no"?><!DOCTYPE svg PUBLIC "-//W3C//DTD SVG 1.1//EN" "http://www.w3.org/Graphics/SVG/1.1/DTD/svg11.dtd"><svg width="100%" height="100%" viewBox="0 0 32 32" version="1.1" xmlns="http://www.w3.org/2000/svg" xmlns:xlink="http://www.w3.org/1999/xlink" xml:space="preserve" style="fill-rule:evenodd;clip-rule:evenodd;stroke-linejoin:round;stroke-miterlimit:1.41421;"><path d="M0,0l32,0l0,32l-32,0l0,-32Z" style="fill:none;"/><path d="M16,6.667l0,-5.334l-6.667,6.667l6.667,6.667l0,-5.334c4.413,0 8,3.587 8,8c0,4.414 -3.587,8 -8,8c-4.413,0 -8,-3.586 -8,-8l-2.667,0c0,5.894 4.774,10.667 10.667,10.667c5.893,0 10.667,-4.773 10.667,-10.667c0,-5.893 -4.774,-10.666 -10.667,-10.666Z" style="fill:#fff;fill-rule:nonzero;"/></svg>