<?xml version="1.0" encoding="UTF-8" standalone="no"?><!DOCTYPE svg PUBLIC "-//W3C//DTD SVG 1.1//EN" "http://www.w3.org/Graphics/SVG/1.1/DTD/svg11.dtd"><svg width="100%" height="100%" viewBox="0 0 32 32" version="1.1" xmlns="http://www.w3.org/2000/svg" xmlns:xlink="http://www.w3.org/1999/xlink" xml:space="preserve" style="fill-rule:evenodd;clip-rule:evenodd;stroke-linejoin:round;stroke-miterlimit:1.41421;"><path d="M22.739,15.448l-11.175,-11.175c-0.16,-0.16 -0.344,-0.24 -0.552,-0.24c-0.208,0 -0.392,0.08 -0.552,0.24l-1.199,1.199c-0.16,0.16 -0.239,0.344 -0.239,0.552c0,0.208 0.079,0.391 0.239,0.551l9.425,9.425l-9.425,9.425c-0.16,0.16 -0.239,0.344 -0.239,0.552c0,0.208 0.079,0.392 0.239,0.552l1.199,1.198c0.16,0.16 0.344,0.24 0.552,0.24c0.208,0 0.392,-0.08 0.552,-0.24l11.175,-11.175c0.16,-0.16 0.24,-0.344 0.24,-0.552c0,-0.208 -0.08,-0.392 -0.24,-0.552Z" style="fill:#fff;fill-rule:nonzero;"/></svg>