<?xml version="1.0" encoding="UTF-8" standalone="no"?><!DOCTYPE svg PUBLIC "-//W3C//DTD SVG 1.1//EN" "http://www.w3.org/Graphics/SVG/1.1/DTD/svg11.dtd"><svg width="100%" height="100%" viewBox="0 0 32 32" version="1.1" xmlns="http://www.w3.org/2000/svg" xmlns:xlink="http://www.w3.org/1999/xlink" xml:space="preserve" style="fill-rule:evenodd;clip-rule:evenodd;stroke-linejoin:round;stroke-miterlimit:1.41421;"><g id="XMLID_1_"><path id="XMLID_3_" d="M25.033,5.5l-19.7,19.7l1.634,1.633l5.766,-5.766l4.2,4.6c0.334,0.333 0.834,0.433 1.267,0.266c0.433,-0.166 0.7,-0.6 0.7,-1.066l0,-9.967l7.767,-7.767l-1.634,-1.633Z" style="fill:#fff;fill-rule:nonzero;"/><path id="XMLID_4_" d="M18.9,8.367l0,-2.034c0,-0.466 -0.267,-0.9 -0.7,-1.066c-0.433,-0.167 -0.933,-0.067 -1.267,0.266l-5,5.434l-3.466,0c-0.634,0 -1.167,0.533 -1.167,1.166l0,6.934c0,0.233 0.1,0.466 0.233,0.633l11.367,-11.333Z" style="fill:#fff;fill-rule:nonzero;"/></g></svg>