<?xml version="1.0" encoding="UTF-8" standalone="no"?><!DOCTYPE svg PUBLIC "-//W3C//DTD SVG 1.1//EN" "http://www.w3.org/Graphics/SVG/1.1/DTD/svg11.dtd"><svg width="100%" height="100%" viewBox="0 0 32 32" version="1.1" xmlns="http://www.w3.org/2000/svg" xmlns:xlink="http://www.w3.org/1999/xlink" xml:space="preserve" style="fill-rule:evenodd;clip-rule:evenodd;stroke-linejoin:round;stroke-miterlimit:1.41421;"><g id="XMLID_1_"><path id="XMLID_3_" d="M15.867,5.833c-0.434,-0.166 -0.934,-0.066 -1.234,0.234l-4.9,5.366l-3.433,0c-0.633,0 -1.133,0.5 -1.133,1.134l0,6.833c0,0.633 0.5,1.133 1.133,1.133l3.433,0l4.9,5.367c0.334,0.333 0.8,0.433 1.234,0.233c0.433,-0.166 0.7,-0.6 0.7,-1.066l0,-18.2c0,-0.467 -0.267,-0.867 -0.7,-1.034Z" style="fill:#fff;fill-rule:nonzero;"/><path id="XMLID_4_" d="M18.867,8l0,2.267c3.133,0 5.7,2.566 5.7,5.7c0,3.133 -2.567,5.7 -5.7,5.7l0,2.266c4.4,0 7.966,-3.566 7.966,-7.966c0,-4.367 -3.566,-7.967 -7.966,-7.967Z" style="fill:#fff;fill-rule:nonzero;"/><path id="XMLID_5_" d="M22.267,16c0,-1.9 -1.534,-3.433 -3.434,-3.433l0,2.266c0.634,0 1.134,0.5 1.134,1.134c0,0.633 -0.5,1.133 -1.134,1.133l0,2.267c1.9,0.066 3.434,-1.467 3.434,-3.367Z" style="fill:#fff;fill-rule:nonzero;"/></g></svg>