<?xml version="1.0" encoding="UTF-8" standalone="no"?><!DOCTYPE svg PUBLIC "-//W3C//DTD SVG 1.1//EN" "http://www.w3.org/Graphics/SVG/1.1/DTD/svg11.dtd"><svg width="100%" height="100%" viewBox="0 0 1469 591" version="1.1" xmlns="http://www.w3.org/2000/svg" xmlns:xlink="http://www.w3.org/1999/xlink" xml:space="preserve" style="fill-rule:evenodd;clip-rule:evenodd;stroke-linejoin:round;stroke-miterlimit:1.41421;"><g><g><g><path d="M952.098,197.828c-30.508,0.636 -45.473,18.124 -45.473,49.776l0,101.977c0,31.651 14.965,49.14 45.473,49.775l0,-28.845c-8.694,-0.778 -13.829,-6.225 -13.829,-19.49l0,-104.857c0,-13.265 5.135,-18.712 13.829,-19.491l0,-28.845Z" style="fill:#fec231;"/><clipPath id="_clip1"><path d="M952.098,197.828c-30.508,0.636 -45.473,18.124 -45.473,49.776l0,101.977c0,31.651 14.965,49.14 45.473,49.775l0,-28.845c-8.694,-0.778 -13.829,-6.225 -13.829,-19.49l0,-104.857c0,-13.265 5.135,-18.712 13.829,-19.491l0,-28.845Z"/></clipPath><g clip-path="url(#_clip1)"><rect x="896.527" y="178.656" width="67.447" height="265.13" style="fill:#fff;"/></g><path d="M1002.18,324.23l0,26.791c0,25.669 -10.064,42.508 -29.916,48.335l0,-75.126l29.916,0Zm-29.916,-126.402c19.852,5.827 29.916,22.666 29.916,48.335l0,19.589l-29.916,0l0,-67.924Z" style="fill:#fec231;"/></g><path d="M1050.56,244.147c0,-14.404 6.343,-19.877 16.434,-19.877c10.091,0 16.434,5.473 16.434,19.877l0,108.89c0,14.404 -6.343,19.877 -16.434,19.877c-10.091,0 -16.434,-5.473 -16.434,-19.877l0,-108.89Zm-31.644,106.874c0,32.248 16.973,50.657 48.078,50.657c31.105,0 48.078,-18.409 48.078,-50.657l0,-104.858c0,-32.248 -16.973,-50.657 -48.078,-50.657c-31.105,0 -48.078,18.409 -48.078,50.657l0,104.858Z" style="fill:#fec231;fill-rule:nonzero;"/><rect x="1135.56" y="197.785" width="31.639" height="201.564" style="fill:#fec231;"/><path d="M1187.39,197.803c30.507,0.636 45.473,18.124 45.473,49.776l0,101.977c0,31.652 -14.966,49.14 -45.473,49.775l0,-28.845c8.694,-0.778 13.829,-6.224 13.829,-19.489l0,-104.858c0,-13.265 -5.135,-18.712 -13.829,-19.49l0,-28.846Z" style="fill:#fec231;"/><clipPath id="_clip2"><path d="M1187.39,197.803c30.507,0.636 45.473,18.124 45.473,49.776l0,101.977c0,31.652 -14.966,49.14 -45.473,49.775l0,-28.845c8.694,-0.778 13.829,-6.224 13.829,-19.489l0,-104.858c0,-13.265 -5.135,-18.712 -13.829,-19.49l0,-28.846Z"/></clipPath><g clip-path="url(#_clip2)"><rect x="1175.52" y="178.632" width="67.447" height="265.13" style="fill:#fff;"/></g><path d="M1253.06,265.758l31.644,0l0,133.616l-31.644,0l0,-133.616Zm31.644,-31.476l-31.644,0l0,-36.472l31.644,0l0,36.472Z" style="fill:#fec231;"/><path d="M1353.83,399.374l-32.512,0l-16.587,-62.233l0,-71.383l6.359,0l13.975,52.703l0.577,0l0,-120.651l28.188,0l0,201.564Z" style="fill:#fec231;"/><path d="M1424.1,370.465c8.921,-0.674 14.433,-6.092 14.433,-19.524l0,-16.781l-14.416,0l0,-37.059l44.332,0l0,53.911c0,31.251 -15.12,49.505 -44.349,50.612l0,-31.159Zm-18.435,31.213c-20.906,-5.376 -31.644,-24.307 -31.644,-50.666l0,-104.842c0,-32.255 16.11,-50.664 47.213,-50.664c23.174,0 38.024,10.217 44.091,28.766c0,0 -43.121,-0.002 -43.226,-0.002c-0.106,0 -0.775,0.002 -0.775,0.002l0,0.009c-9.64,0.278 -15.659,5.836 -15.659,19.872l0,157.525Zm62.784,-125.902l-44.334,0l0,-31.483l44.334,0c0.012,0.62 0,31.483 0,31.483Z" style="fill:#fec231;"/><clipPath id="_clip3"><path d="M1424.1,370.465c8.921,-0.674 14.433,-6.092 14.433,-19.524l0,-16.781l-14.416,0l0,-37.059l44.332,0l0,53.911c0,31.251 -15.12,49.505 -44.349,50.612l0,-31.159Zm-18.435,31.213c-20.906,-5.376 -31.644,-24.307 -31.644,-50.666l0,-104.842c0,-32.255 16.11,-50.664 47.213,-50.664c23.174,0 38.024,10.217 44.091,28.766c0,0 -43.121,-0.002 -43.226,-0.002c-0.106,0 -0.775,0.002 -0.775,0.002l0,0.009c-9.64,0.278 -15.659,5.836 -15.659,19.872l0,157.525Zm62.784,-125.902l-44.334,0l0,-31.483l44.334,0c0.012,0.62 0,31.483 0,31.483Z"/></clipPath><g clip-path="url(#_clip3)"><rect x="1415.79" y="237.48" width="89.236" height="201.528" style="fill:#fff;"/></g></g><g><rect x="855.297" y="370.514" width="31.164" height="31.164" style="fill:#fff;"/><rect x="526.516" y="370.514" width="308.616" height="31.164" style="fill:#fec231;"/></g><g><path d="M609.386,224l-45.947,0l0,124.594l-36.905,0l0,-124.594l-45.107,0l0,-28.494l127.959,0l0,28.494Z" style="fill:#fff;fill-rule:nonzero;"/><path d="M681.829,294.445l-19.977,0l0,54.149l-36.905,0l0,-153.088l60.247,0c18.154,0 32.349,4.026 42.582,12.078c10.234,8.052 15.351,19.431 15.351,34.135c0,10.644 -2.155,19.467 -6.466,26.468c-4.311,7.002 -11.057,12.674 -20.24,17.015l31.963,61.813l0,1.579l-39.533,0l-27.022,-54.149Zm-19.977,-28.388l23.342,0c7.009,0 12.284,-1.845 15.824,-5.534c3.539,-3.69 5.309,-8.837 5.309,-15.442c0,-6.606 -1.787,-11.788 -5.362,-15.547c-3.575,-3.76 -8.832,-5.639 -15.771,-5.639l-23.342,0l0,42.162Z" style="fill:#fff;fill-rule:nonzero;"/><path d="M816.412,261.956l28.178,-66.45l39.849,0l-49.312,98.098l0,54.99l-37.431,0l0,-54.99l-49.206,-98.098l39.638,0l28.284,66.45Z" style="fill:#fff;fill-rule:nonzero;"/></g></g><g><path d="M233.883,85.423l-148.032,0l0,263.925l128.778,114.023l32.085,-28.429l71.576,63.361l-103.661,91.851l-214.629,-190.039l0,-400.115l233.883,0l0,85.423Z" style="fill:#fff;"/><path d="M286.171,195.203l143.086,0l-0.051,204.822l-71.492,63.346l-71.542,-63.346l56.908,-50.424l-56.909,-50.388l0,-104.01Z" style="fill:#fec231;"/><rect x="286.171" y="0" width="143.086" height="143.086" style="fill:#fec231;"/></g></svg>