<?xml version="1.0" encoding="UTF-8" standalone="no"?><!DOCTYPE svg PUBLIC "-//W3C//DTD SVG 1.1//EN" "http://www.w3.org/Graphics/SVG/1.1/DTD/svg11.dtd"><svg width="100%" height="100%" viewBox="0 0 988 207" version="1.1" xmlns="http://www.w3.org/2000/svg" xmlns:xlink="http://www.w3.org/1999/xlink" xml:space="preserve" style="fill-rule:evenodd;clip-rule:evenodd;stroke-linejoin:round;stroke-miterlimit:1.41421;"><g><g><g><path d="M470.67,2.322c-30.507,0.636 -45.473,18.124 -45.473,49.776l0,101.977c0,31.651 14.966,49.139 45.473,49.775l0,-28.845c-8.693,-0.778 -13.829,-6.225 -13.829,-19.49l0,-104.857c0,-13.265 5.136,-18.712 13.829,-19.491l0,-28.845Z" style="fill:#fec231;"/><clipPath id="_clip1"><path d="M470.67,2.322c-30.507,0.636 -45.473,18.124 -45.473,49.776l0,101.977c0,31.651 14.966,49.139 45.473,49.775l0,-28.845c-8.693,-0.778 -13.829,-6.225 -13.829,-19.49l0,-104.857c0,-13.265 5.136,-18.712 13.829,-19.491l0,-28.845Z"/></clipPath><g clip-path="url(#_clip1)"><rect x="415.099" y="-16.85" width="67.447" height="265.13" style="fill:#fff;"/></g><path d="M520.75,128.724l0,26.791c0,25.669 -10.063,42.508 -29.916,48.335l0,-75.126l29.916,0Zm-29.916,-126.402c19.853,5.827 29.916,22.666 29.916,48.335l0,19.589l-29.916,0l0,-67.924Z" style="fill:#fec231;"/></g><path d="M569.134,48.641c0,-14.404 6.343,-19.877 16.434,-19.877c10.091,0 16.434,5.473 16.434,19.877l0,108.89c0,14.404 -6.343,19.877 -16.434,19.877c-10.091,0 -16.434,-5.473 -16.434,-19.877l0,-108.89Zm-31.644,106.874c0,32.248 16.973,50.657 48.078,50.657c31.106,0 48.078,-18.409 48.078,-50.657l0,-104.858c0,-32.248 -16.972,-50.657 -48.078,-50.657c-31.105,0 -48.078,18.409 -48.078,50.657l0,104.858Z" style="fill:#fec231;fill-rule:nonzero;"/><rect x="654.13" y="2.279" width="31.639" height="201.564" style="fill:#fec231;"/><path d="M705.965,2.297c30.508,0.636 45.473,18.124 45.473,49.776l0,101.977c0,31.651 -14.965,49.14 -45.473,49.775l0,-28.845c8.694,-0.778 13.829,-6.224 13.829,-19.489l0,-104.858c0,-13.265 -5.135,-18.712 -13.829,-19.49l0,-28.846Z" style="fill:#fec231;"/><clipPath id="_clip2"><path d="M705.965,2.297c30.508,0.636 45.473,18.124 45.473,49.776l0,101.977c0,31.651 -14.965,49.14 -45.473,49.775l0,-28.845c8.694,-0.778 13.829,-6.224 13.829,-19.489l0,-104.858c0,-13.265 -5.135,-18.712 -13.829,-19.49l0,-28.846Z"/></clipPath><g clip-path="url(#_clip2)"><rect x="694.089" y="-16.874" width="67.447" height="265.13" style="fill:#fff;"/></g><path d="M771.634,70.252l31.644,0l0,133.616l-31.644,0l0,-133.616Zm31.644,-31.476l-31.644,0l0,-36.472l31.644,0l0,36.472Z" style="fill:#fec231;"/><path d="M872.398,203.868l-32.511,0l-16.588,-62.233l0,-71.383l6.359,0l13.976,52.703l0.576,0l0,-120.651l28.188,0l0,201.564Z" style="fill:#fec231;"/><path d="M942.673,174.959c8.922,-0.674 14.433,-6.092 14.433,-19.524l0,-16.781l-14.415,0l0,-37.06l44.331,0l0,53.912c0,31.251 -15.12,49.505 -44.349,50.612l0,-31.159Zm-18.435,31.213c-20.906,-5.376 -31.644,-24.307 -31.644,-50.666l0,-104.842c0,-32.255 16.11,-50.664 47.213,-50.664c23.175,0 38.025,10.217 44.091,28.766c0,0 -43.12,-0.002 -43.226,-0.002c-0.105,0 -0.775,0.002 -0.775,0.002l0,0.009c-9.639,0.278 -15.659,5.836 -15.659,19.872l0,157.525Zm62.784,-125.902l-44.333,0l0,-31.483l44.333,0c0.013,0.62 0,31.483 0,31.483Z" style="fill:#fec231;"/><clipPath id="_clip3"><path d="M942.673,174.959c8.922,-0.674 14.433,-6.092 14.433,-19.524l0,-16.781l-14.415,0l0,-37.06l44.331,0l0,53.912c0,31.251 -15.12,49.505 -44.349,50.612l0,-31.159Zm-18.435,31.213c-20.906,-5.376 -31.644,-24.307 -31.644,-50.666l0,-104.842c0,-32.255 16.11,-50.664 47.213,-50.664c23.175,0 38.025,10.217 44.091,28.766c0,0 -43.12,-0.002 -43.226,-0.002c-0.105,0 -0.775,0.002 -0.775,0.002l0,0.009c-9.639,0.278 -15.659,5.836 -15.659,19.872l0,157.525Zm62.784,-125.902l-44.333,0l0,-31.483l44.333,0c0.013,0.62 0,31.483 0,31.483Z"/></clipPath><g clip-path="url(#_clip3)"><rect x="934.357" y="41.974" width="89.236" height="201.528" style="fill:#fff;"/></g></g><g><rect x="373.869" y="175.008" width="31.164" height="31.164" style="fill:#fff;"/><rect x="45.089" y="175.008" width="308.616" height="31.164" style="fill:#fec231;"/></g><g><path d="M127.959,28.494l-45.948,0l0,124.594l-36.905,0l0,-124.594l-45.106,0l0,-28.494l127.959,0l0,28.494Z" style="fill:#fff;fill-rule:nonzero;"/><path d="M200.402,98.939l-19.977,0l0,54.149l-36.905,0l0,-153.088l60.246,0c18.155,0 32.349,4.026 42.583,12.078c10.234,8.052 15.351,19.431 15.351,34.135c0,10.644 -2.156,19.467 -6.466,26.468c-4.311,7.002 -11.058,12.674 -20.24,17.015l31.963,61.813l0,1.579l-39.534,0l-27.021,-54.149Zm-19.977,-28.388l23.341,0c7.01,0 12.284,-1.845 15.824,-5.534c3.54,-3.69 5.31,-8.837 5.31,-15.442c0,-6.606 -1.787,-11.788 -5.362,-15.547c-3.575,-3.76 -8.832,-5.64 -15.772,-5.64l-23.341,0l0,42.163Z" style="fill:#fff;fill-rule:nonzero;"/><path d="M334.984,66.45l28.178,-66.45l39.849,0l-49.311,98.098l0,54.99l-37.431,0l0,-54.99l-49.207,-98.098l39.639,0l28.283,66.45Z" style="fill:#fff;fill-rule:nonzero;"/></g></g></svg>